<svg xmlns="http://www.w3.org/2000/svg" id="HJoNWLmym" viewBox="0 0 18 20"><style>@-webkit-keyframes HJVo4ZUXJQ_r1mXGL7k7_Animation{0%,to{-webkit-transform:translate(0,0);transform:translate(0,0)}50%{-webkit-transform:translate(-12px,0);transform:translate(-12px,0)}}@keyframes HJVo4ZUXJQ_r1mXGL7k7_Animation{0%,to{-webkit-transform:translate(0,0);transform:translate(0,0)}50%{-webkit-transform:translate(-12px,0);transform:translate(-12px,0)}}#HJoNWLmym *{-webkit-animation-duration:2s;animation-duration:2s;-webkit-animation-iteration-count:infinite;animation-iteration-count:infinite;-webkit-animation-timing-function:cubic-bezier(0,0,1,1);animation-timing-function:cubic-bezier(0,0,1,1)}#BkGjE-8XJQ{fill:none;stroke:#4e4e4e;stroke-linecap:round;stroke-linejoin:round}#H17oE-ImJm,#HyUj4WI7yQ,#SyBo4Z8myX{fill:none;stroke:#4e4e4e;stroke-miterlimit:10}#HJVo4ZUXJQ_r1mXGL7k7{-webkit-animation-name:HJVo4ZUXJQ_r1mXGL7k7_Animation;animation-name:HJVo4ZUXJQ_r1mXGL7k7_Animation;-webkit-transform-origin:50% 50%;transform-origin:50% 50%;transform-box:fill-box;-webkit-transform:translate(0,0);transform:translate(0,0)}</style><title>bot-outline</title><g id="B1ejVZLXJm" data-name="Layer 2"><g id="H1biNZImJ7" data-name="Layer 1"><path id="BkGjE-8XJQ" d="M15,6.53H2A1.46,1.46,0,0,0,.5,8V19.25a.89.89,0,0,0,.89.89H16.81a.89.89,0,0,0,.89-.89V8a1.46,1.46,0,0,0-1.46-1.46H15Z"/><path id="H17oE-ImJm" d="M5.6,15.23a1.69,1.69,0,1,1,1.69-1.69A1.69,1.69,0,0,1,5.6,15.23Zm7.21,0a1.69,1.69,0,1,1,1.69-1.69A1.69,1.69,0,0,1,12.81,15.23Z"/><g id="HJVo4ZUXJQ_r1mXGL7k7" data-animator-group="true" data-animator-type="0"><g id="HJVo4ZUXJQ"><circle id="SyBo4Z8myX" cx="15.52" cy="2.06" r="1.56"/><line id="HyUj4WI7yQ" x1="15.52" x2="15.52" y1="3.61" y2="6.53"/></g></g></g></g><script>(function(){var a=document.querySelector(&apos;#HJoNWLmym&apos;),b=a.querySelectorAll(&apos;style&apos;),c=function(d){b.forEach(function(f){var g=f.textContent;g&amp;&amp;(f.textContent=g.replace(/transform-box:[^;\r\n]*/gi,&apos;transform-box: &apos;+d))})};c(&apos;initial&apos;),window.requestAnimationFrame(function(){return c(&apos;fill-box&apos;)})})();</script></svg>