<svg xmlns="http://www.w3.org/2000/svg" id="Layer_1" data-name="Layer 1" viewBox="0 0 50 50"><defs><style>.cls-1{fill:#fff}.cls-1,.cls-2,.cls-3{stroke:#d3d7e1;stroke-linecap:round;stroke-linejoin:round}.cls-2{fill:none}.cls-3{fill:#d3d7e1}</style></defs><title>exit-ilus</title><g><g><path d="M33.48,24.25a1.36,1.36,0,0,0-1.36-1.36H18.44a1.36,1.36,0,0,0-1.36,1.36V36.7h16.4Z" class="cls-1"/><g><path d="M23.59,28.59a1.65,1.65,0,0,1-3,1.38" class="cls-1"/><circle cx="28.23" cy="29.49" r="1.65" class="cls-1"/></g><polyline points="30.33 22.89 18.44 22.89 14.75 14.2 30.33 14.2 30.33 22.89 30.33 19.19" class="cls-2"/><circle cx="30.33" cy="17.16" r="1.65" class="cls-1"/></g><line x1="24.24" x2="19.9" y1="28.48" y2="28.48" class="cls-1"/><polygon points="14.75 14.2 14.75 35.52 20.6 39.83 20.6 17.95 14.75 14.2" class="cls-3"/></g></svg>